<mxfile host="app.diagrams.net" modified="2023-12-13T12:23:01.791Z" agent="Mozilla/5.0 (Macintosh; Intel Mac OS X 10_15_7) AppleWebKit/537.36 (KHTML, like Gecko) Chrome/120.0.0.0 Safari/537.36" etag="mgXKy_DZFW86D36fjNqa" version="22.1.8" type="github">
  <diagram name="第 1 页" id="GGUch8PBxxLQfr5ORZUA">
    <mxGraphModel dx="1912" dy="1048" grid="1" gridSize="10" guides="1" tooltips="1" connect="1" arrows="1" fold="1" page="1" pageScale="1" pageWidth="827" pageHeight="1169" math="0" shadow="0">
      <root>
        <mxCell id="0" />
        <mxCell id="1" parent="0" />
        <mxCell id="tyBWiqdXj7CT22cmNioW-52" value="" style="rounded=1;whiteSpace=wrap;html=1;fillColor=#2ecc3c;dashed=1;labelBackgroundColor=none;strokeColor=none;opacity=60;" parent="1" vertex="1">
          <mxGeometry x="900" y="440" width="260" height="400" as="geometry" />
        </mxCell>
        <mxCell id="n-YF-1pe-g2PU01LNGiE-7" value="" style="rounded=1;whiteSpace=wrap;html=1;fillColor=none;dashed=1;labelBackgroundColor=none;strokeColor=#666666;opacity=50;strokeWidth=1;gradientColor=default;" vertex="1" parent="1">
          <mxGeometry x="910" y="680" width="240" height="150" as="geometry" />
        </mxCell>
        <mxCell id="n-YF-1pe-g2PU01LNGiE-5" value="" style="rounded=1;whiteSpace=wrap;html=1;fillColor=none;dashed=1;labelBackgroundColor=none;strokeColor=#666666;opacity=50;strokeWidth=1;gradientColor=default;" vertex="1" parent="1">
          <mxGeometry x="910" y="452.5" width="240" height="105.12" as="geometry" />
        </mxCell>
        <mxCell id="gwuaD-GeZfBtRJ5TRG_n-8" value="" style="rounded=1;whiteSpace=wrap;html=1;fillColor=none;dashed=1;strokeColor=#2EBECC;" parent="1" vertex="1">
          <mxGeometry x="252" y="60" width="940" height="180" as="geometry" />
        </mxCell>
        <mxCell id="gwuaD-GeZfBtRJ5TRG_n-12" style="edgeStyle=orthogonalEdgeStyle;rounded=0;orthogonalLoop=1;jettySize=auto;html=1;exitX=0.5;exitY=0;exitDx=0;exitDy=0;entryX=1;entryY=0.5;entryDx=0;entryDy=0;curved=1;strokeColor=#2ECC71;dashed=1;strokeWidth=2;opacity=60;" parent="1" source="gwuaD-GeZfBtRJ5TRG_n-6" target="gwuaD-GeZfBtRJ5TRG_n-8" edge="1">
          <mxGeometry relative="1" as="geometry" />
        </mxCell>
        <mxCell id="gwuaD-GeZfBtRJ5TRG_n-6" value="" style="ellipse;whiteSpace=wrap;html=1;fillColor=none;dashed=1;strokeColor=#2ECC71;fontColor=#2ECC71;opacity=50;strokeWidth=2;" parent="1" vertex="1">
          <mxGeometry x="1320" y="230" width="280" height="140" as="geometry" />
        </mxCell>
        <mxCell id="gwuaD-GeZfBtRJ5TRG_n-2" style="edgeStyle=orthogonalEdgeStyle;rounded=0;orthogonalLoop=1;jettySize=auto;html=1;exitX=1;exitY=0.5;exitDx=0;exitDy=0;strokeColor=#2ECC71;entryX=0;entryY=0.5;entryDx=0;entryDy=0;curved=1;strokeWidth=2;opacity=60;" parent="1" source="gwuaD-GeZfBtRJ5TRG_n-1" target="gwuaD-GeZfBtRJ5TRG_n-6" edge="1">
          <mxGeometry relative="1" as="geometry">
            <mxPoint x="1310" y="380" as="targetPoint" />
          </mxGeometry>
        </mxCell>
        <mxCell id="gwuaD-GeZfBtRJ5TRG_n-1" value="" style="rounded=1;whiteSpace=wrap;html=1;fillColor=#2ECC71;labelBackgroundColor=none;strokeColor=#E6FFCC;opacity=30;fontColor=#FFFFFF;fontStyle=1" parent="1" vertex="1">
          <mxGeometry x="301" y="263" width="875" height="150" as="geometry" />
        </mxCell>
        <mxCell id="tyBWiqdXj7CT22cmNioW-110" value="" style="rounded=1;whiteSpace=wrap;html=1;fillColor=#2ebecc;dashed=1;labelBackgroundColor=none;strokeColor=none;opacity=60;" parent="1" vertex="1">
          <mxGeometry x="289" y="80" width="673" height="140" as="geometry" />
        </mxCell>
        <mxCell id="tyBWiqdXj7CT22cmNioW-64" value="H5 人脸" style="rounded=0;whiteSpace=wrap;html=1;labelBackgroundColor=none;fontColor=#FFFFFF;fontStyle=1;fillColor=#2ecc3c;strokeColor=none;opacity=80;" parent="1" vertex="1">
          <mxGeometry x="920" y="740.72" width="100" height="30" as="geometry" />
        </mxCell>
        <mxCell id="tyBWiqdXj7CT22cmNioW-66" value="端识别" style="rounded=0;whiteSpace=wrap;html=1;labelBackgroundColor=none;fontColor=#FFFFFF;fontStyle=1;fillColor=#2ecc3c;strokeColor=none;opacity=80;" parent="1" vertex="1">
          <mxGeometry x="920" y="480.18" width="100" height="30" as="geometry" />
        </mxCell>
        <mxCell id="tyBWiqdXj7CT22cmNioW-67" value="&lt;font style=&quot;font-size: 11px;&quot;&gt;H5 Bridge Polyfill&lt;/font&gt;" style="rounded=0;whiteSpace=wrap;html=1;labelBackgroundColor=none;fontColor=#FFFFFF;fontStyle=1;fillColor=#2ecc3c;strokeColor=none;opacity=80;" parent="1" vertex="1">
          <mxGeometry x="920" y="705.09" width="100" height="30" as="geometry" />
        </mxCell>
        <mxCell id="tyBWiqdXj7CT22cmNioW-87" value="PostMessage通信" style="rounded=0;whiteSpace=wrap;html=1;labelBackgroundColor=none;fontColor=#FFFFFF;fontStyle=1;fillColor=#2ecc3c;strokeColor=none;opacity=80;" parent="1" vertex="1">
          <mxGeometry x="920" y="782.13" width="210" height="30" as="geometry" />
        </mxCell>
        <mxCell id="tyBWiqdXj7CT22cmNioW-104" value="" style="rounded=1;whiteSpace=wrap;html=1;fillColor=#5ECC2E;labelBackgroundColor=none;strokeColor=#5ecc2e;opacity=30;fontColor=#FFFFFF;fontStyle=1" parent="1" vertex="1">
          <mxGeometry x="285" y="441.25" width="605" height="242.75" as="geometry" />
        </mxCell>
        <mxCell id="tyBWiqdXj7CT22cmNioW-49" value="" style="rounded=1;whiteSpace=wrap;html=1;fillColor=#5ECC2E;dashed=1;labelBackgroundColor=none;strokeColor=none;opacity=60;fontColor=#FFFFFF;fontStyle=1" parent="1" vertex="1">
          <mxGeometry x="300" y="455.12" width="570" height="97.5" as="geometry" />
        </mxCell>
        <mxCell id="tyBWiqdXj7CT22cmNioW-39" value="" style="rounded=1;whiteSpace=wrap;html=1;fillColor=#2ECC71;labelBackgroundColor=none;strokeColor=#E6FFCC;opacity=60;fontColor=#FFFFFF;fontStyle=1" parent="1" vertex="1">
          <mxGeometry x="285" y="280" width="875" height="150" as="geometry" />
        </mxCell>
        <mxCell id="tyBWiqdXj7CT22cmNioW-1" value="Chitu Cashier" style="rounded=0;whiteSpace=wrap;html=1;flipH=1;labelBackgroundColor=none;fillColor=#5ecc2e;fontColor=#FFFFFF;fontStyle=1;strokeColor=none;" parent="1" vertex="1">
          <mxGeometry x="325" y="485.12" width="160" height="45" as="geometry" />
        </mxCell>
        <mxCell id="tyBWiqdXj7CT22cmNioW-5" value="Yunchang Cashier" style="rounded=0;whiteSpace=wrap;html=1;flipH=1;labelBackgroundColor=none;fillColor=#5ecc2e;fontColor=#FFFFFF;fontStyle=1;strokeColor=none;" parent="1" vertex="1">
          <mxGeometry x="509" y="485.12" width="160" height="45" as="geometry" />
        </mxCell>
        <mxCell id="tyBWiqdXj7CT22cmNioW-6" value="Auth Page" style="rounded=0;whiteSpace=wrap;html=1;flipH=1;labelBackgroundColor=none;fillColor=#5ecc2e;fontColor=#FFFFFF;fontStyle=1;strokeColor=none;" parent="1" vertex="1">
          <mxGeometry x="693" y="485.12" width="160" height="45" as="geometry" />
        </mxCell>
        <mxCell id="tyBWiqdXj7CT22cmNioW-7" value="加油" style="rounded=0;whiteSpace=wrap;html=1;labelBackgroundColor=none;fillColor=#2ebecc;strokeColor=none;fontSize=14;fontStyle=1;fontColor=#FFFFFF;" parent="1" vertex="1">
          <mxGeometry x="313" y="100" width="180" height="50" as="geometry" />
        </mxCell>
        <mxCell id="tyBWiqdXj7CT22cmNioW-8" value="租车" style="rounded=0;whiteSpace=wrap;html=1;labelBackgroundColor=none;fillColor=#2ebecc;strokeColor=none;fontSize=14;fontStyle=1;fontColor=#FFFFFF;" parent="1" vertex="1">
          <mxGeometry x="533" y="100" width="180" height="50" as="geometry" />
        </mxCell>
        <mxCell id="tyBWiqdXj7CT22cmNioW-9" value="保险" style="rounded=0;whiteSpace=wrap;html=1;labelBackgroundColor=none;fillColor=#2ebecc;strokeColor=none;fontSize=14;fontStyle=1;fontColor=#FFFFFF;" parent="1" vertex="1">
          <mxGeometry x="752" y="100" width="180" height="50" as="geometry" />
        </mxCell>
        <mxCell id="tyBWiqdXj7CT22cmNioW-10" value="线下业务&lt;br&gt;（保司）" style="rounded=0;whiteSpace=wrap;html=1;labelBackgroundColor=none;fillColor=#2ebecc;strokeColor=none;fontSize=14;fontStyle=1;fontColor=#FFFFFF;" parent="1" vertex="1">
          <mxGeometry x="983" y="80" width="180" height="140" as="geometry" />
        </mxCell>
        <mxCell id="tyBWiqdXj7CT22cmNioW-28" value="Chitu Cashier Class" style="rounded=0;whiteSpace=wrap;html=1;labelBackgroundColor=none;fillColor=#2ecc71;strokeColor=none;fontColor=#FFFFFF;fontStyle=1" parent="1" vertex="1">
          <mxGeometry x="325" y="310" width="240" height="45" as="geometry" />
        </mxCell>
        <mxCell id="tyBWiqdXj7CT22cmNioW-14" value="YunchangBase(初始化 vue 实例、store实例、Request Adapter，并注册onOpen、onError等方法)" style="rounded=0;whiteSpace=wrap;html=1;labelBackgroundColor=none;fillColor=#2ecc71;strokeColor=none;fontColor=#FFFFFF;fontStyle=1" parent="1" vertex="1">
          <mxGeometry x="326" y="370" width="814" height="45" as="geometry" />
        </mxCell>
        <mxCell id="tyBWiqdXj7CT22cmNioW-40" value="" style="rounded=1;whiteSpace=wrap;html=1;fillColor=#5ECC2E;dashed=1;labelBackgroundColor=none;strokeColor=#5ecc2e;opacity=60;fontColor=#FFFFFF;fontStyle=1" parent="1" vertex="1">
          <mxGeometry x="300" y="572.62" width="570" height="97.5" as="geometry" />
        </mxCell>
        <mxCell id="tyBWiqdXj7CT22cmNioW-41" value="卡位复选框&lt;br&gt;check-box" style="rounded=0;whiteSpace=wrap;html=1;labelBackgroundColor=none;fillColor=#5ecc2e;fontColor=#FFFFFF;fontStyle=1;strokeColor=none;flipH=0;" parent="1" vertex="1">
          <mxGeometry x="327" y="600.12" width="93" height="45" as="geometry" />
        </mxCell>
        <mxCell id="tyBWiqdXj7CT22cmNioW-43" value="验密组件&lt;br&gt;base-password" style="rounded=0;whiteSpace=wrap;html=1;labelBackgroundColor=none;fillColor=#5ecc2e;fontColor=#FFFFFF;fontStyle=1;strokeColor=none;flipH=0;" parent="1" vertex="1">
          <mxGeometry x="435" y="598.87" width="93" height="45" as="geometry" />
        </mxCell>
        <mxCell id="tyBWiqdXj7CT22cmNioW-44" value="金额标题组件&lt;br&gt;amount-header" style="rounded=0;whiteSpace=wrap;html=1;labelBackgroundColor=none;fillColor=#5ecc2e;fontColor=#FFFFFF;fontStyle=1;strokeColor=none;flipH=0;" parent="1" vertex="1">
          <mxGeometry x="543" y="598.87" width="93" height="45" as="geometry" />
        </mxCell>
        <mxCell id="tyBWiqdXj7CT22cmNioW-46" value="键盘组件&lt;br&gt;base-keyboard" style="rounded=0;whiteSpace=wrap;html=1;labelBackgroundColor=none;fillColor=#5ecc2e;fontColor=#FFFFFF;fontStyle=1;strokeColor=none;flipH=0;" parent="1" vertex="1">
          <mxGeometry x="652" y="600.12" width="93" height="45" as="geometry" />
        </mxCell>
        <mxCell id="tyBWiqdXj7CT22cmNioW-47" value="组件 components" style="text;html=1;strokeColor=none;fillColor=none;align=center;verticalAlign=middle;whiteSpace=wrap;rounded=0;labelBackgroundColor=none;fontColor=#FFFFFF;fontStyle=1" parent="1" vertex="1">
          <mxGeometry x="526.25" y="568.87" width="117.5" height="30" as="geometry" />
        </mxCell>
        <mxCell id="tyBWiqdXj7CT22cmNioW-50" value="页面容器组件 views" style="text;html=1;strokeColor=none;fillColor=none;align=center;verticalAlign=middle;whiteSpace=wrap;rounded=0;labelBackgroundColor=none;fontColor=#FFFFFF;fontStyle=1" parent="1" vertex="1">
          <mxGeometry x="520" y="455.12" width="130" height="30" as="geometry" />
        </mxCell>
        <mxCell id="tyBWiqdXj7CT22cmNioW-54" value="" style="rounded=1;whiteSpace=wrap;html=1;fillColor=#89CC2e;dashed=1;labelBackgroundColor=none;strokeColor=none;opacity=60;fontColor=#FFFFFF;fontStyle=1" parent="1" vertex="1">
          <mxGeometry x="285" y="694" width="445" height="150" as="geometry" />
        </mxCell>
        <mxCell id="tyBWiqdXj7CT22cmNioW-55" value="状态管理 store" style="text;html=1;strokeColor=none;fillColor=none;align=center;verticalAlign=middle;whiteSpace=wrap;rounded=0;labelBackgroundColor=none;fontColor=#FFFFFF;fontStyle=1" parent="1" vertex="1">
          <mxGeometry x="287" y="694" width="530" height="30" as="geometry" />
        </mxCell>
        <mxCell id="tyBWiqdXj7CT22cmNioW-56" value="ddpay&amp;nbsp;api" style="rounded=0;whiteSpace=wrap;html=1;flipH=0;labelBackgroundColor=none;strokeColor=none;fillColor=#89CC2e;fontColor=#FFFFFF;fontStyle=1" parent="1" vertex="1">
          <mxGeometry x="302" y="784" width="198" height="45" as="geometry" />
        </mxCell>
        <mxCell id="tyBWiqdXj7CT22cmNioW-58" value="赤兔模块&lt;br&gt;chitu module" style="rounded=0;whiteSpace=wrap;html=1;flipH=0;labelBackgroundColor=none;strokeColor=none;fillColor=#89CC2e;fontColor=#FFFFFF;fontStyle=1" parent="1" vertex="1">
          <mxGeometry x="302" y="724.56" width="100" height="45" as="geometry" />
        </mxCell>
        <mxCell id="tyBWiqdXj7CT22cmNioW-60" value="&lt;font style=&quot;font-size: 10px;&quot;&gt;云长模块&lt;br&gt;yunchang module&lt;/font&gt;" style="rounded=0;whiteSpace=wrap;html=1;flipH=0;labelBackgroundColor=none;strokeColor=none;fillColor=#89CC2e;fontColor=#FFFFFF;fontStyle=1" parent="1" vertex="1">
          <mxGeometry x="406" y="725.12" width="94" height="44.44" as="geometry" />
        </mxCell>
        <mxCell id="tyBWiqdXj7CT22cmNioW-61" value="授权模块&lt;br&gt;auth module" style="rounded=0;whiteSpace=wrap;html=1;flipH=0;labelBackgroundColor=none;strokeColor=none;fillColor=#89CC2e;fontColor=#FFFFFF;fontStyle=1" parent="1" vertex="1">
          <mxGeometry x="509" y="724.56" width="100" height="45" as="geometry" />
        </mxCell>
        <mxCell id="tyBWiqdXj7CT22cmNioW-62" value="公共模块&lt;br&gt;common module" style="rounded=0;whiteSpace=wrap;html=1;flipH=0;labelBackgroundColor=none;strokeColor=none;fillColor=#89CC2e;fontColor=#FFFFFF;fontStyle=1" parent="1" vertex="1">
          <mxGeometry x="613" y="724" width="100" height="45" as="geometry" />
        </mxCell>
        <mxCell id="tyBWiqdXj7CT22cmNioW-68" value="" style="rounded=1;whiteSpace=wrap;html=1;fillColor=#2e89cc;dashed=1;labelBackgroundColor=none;strokeColor=none;opacity=60;" parent="1" vertex="1">
          <mxGeometry x="286" y="1010" width="875" height="70" as="geometry" />
        </mxCell>
        <mxCell id="tyBWiqdXj7CT22cmNioW-36" value="DDPay Service" style="rounded=0;whiteSpace=wrap;html=1;labelBackgroundColor=none;fillColor=#2e89cc;strokeColor=none;fontStyle=1;fontColor=#FFFFFF;" parent="1" vertex="1">
          <mxGeometry x="311" y="1022.5" width="400" height="45" as="geometry" />
        </mxCell>
        <mxCell id="tyBWiqdXj7CT22cmNioW-37" value="Usercenter Service" style="rounded=0;whiteSpace=wrap;html=1;labelBackgroundColor=none;fillColor=#2e89cc;strokeColor=none;fontStyle=1;fontColor=#FFFFFF;" parent="1" vertex="1">
          <mxGeometry x="740" y="1022.5" width="400" height="45" as="geometry" />
        </mxCell>
        <mxCell id="tyBWiqdXj7CT22cmNioW-71" value="usercenter api" style="rounded=0;whiteSpace=wrap;html=1;flipH=0;labelBackgroundColor=none;strokeColor=none;fillColor=#89CC2e;fontColor=#FFFFFF;fontStyle=1" parent="1" vertex="1">
          <mxGeometry x="512" y="784" width="201" height="45" as="geometry" />
        </mxCell>
        <mxCell id="tyBWiqdXj7CT22cmNioW-75" value="" style="rounded=1;whiteSpace=wrap;html=1;fillColor=#2ecca6;dashed=1;labelBackgroundColor=none;strokeColor=none;opacity=60;fontStyle=1;fontColor=#FFFFFF;" parent="1" vertex="1">
          <mxGeometry x="287" y="860" width="873" height="90" as="geometry" />
        </mxCell>
        <mxCell id="tyBWiqdXj7CT22cmNioW-77" value="Webpack4.x" style="rounded=0;whiteSpace=wrap;html=1;flipH=0;labelBackgroundColor=none;strokeColor=none;fillColor=#2ecca6;fontStyle=1;fontColor=#FFFFFF;" parent="1" vertex="1">
          <mxGeometry x="304" y="891.5" width="130" height="45" as="geometry" />
        </mxCell>
        <mxCell id="tyBWiqdXj7CT22cmNioW-78" value="WebviewUtil3.x" style="rounded=0;whiteSpace=wrap;html=1;flipH=0;labelBackgroundColor=none;strokeColor=none;fillColor=#2ecca6;fontStyle=1;fontColor=#FFFFFF;" parent="1" vertex="1">
          <mxGeometry x="481" y="891.5" width="130" height="45" as="geometry" />
        </mxCell>
        <mxCell id="tyBWiqdXj7CT22cmNioW-79" value="Vue2.x" style="rounded=0;whiteSpace=wrap;html=1;flipH=0;labelBackgroundColor=none;strokeColor=none;fillColor=#2ecca6;fontStyle=1;fontColor=#FFFFFF;" parent="1" vertex="1">
          <mxGeometry x="657" y="891.5" width="130" height="45" as="geometry" />
        </mxCell>
        <mxCell id="tyBWiqdXj7CT22cmNioW-80" value="mand-mobile2.x" style="rounded=0;whiteSpace=wrap;html=1;flipH=0;labelBackgroundColor=none;strokeColor=none;fillColor=#2ecca6;fontStyle=1;fontColor=#FFFFFF;" parent="1" vertex="1">
          <mxGeometry x="834" y="891.5" width="130" height="45" as="geometry" />
        </mxCell>
        <mxCell id="tyBWiqdXj7CT22cmNioW-81" value="babel" style="rounded=0;whiteSpace=wrap;html=1;flipH=0;labelBackgroundColor=none;strokeColor=none;fillColor=#2ecca6;fontStyle=1;fontColor=#FFFFFF;" parent="1" vertex="1">
          <mxGeometry x="1010" y="891.5" width="130" height="45" as="geometry" />
        </mxCell>
        <mxCell id="tyBWiqdXj7CT22cmNioW-82" value="" style="endArrow=none;dashed=1;html=1;rounded=0;labelBackgroundColor=none;fontColor=default;strokeColor=#2E89CC;strokeWidth=2;opacity=30;" parent="1" edge="1">
          <mxGeometry width="50" height="50" relative="1" as="geometry">
            <mxPoint x="50" y="980" as="sourcePoint" />
            <mxPoint x="1160" y="980" as="targetPoint" />
          </mxGeometry>
        </mxCell>
        <mxCell id="tyBWiqdXj7CT22cmNioW-85" value="loading组件&lt;br&gt;pay-loading" style="rounded=0;whiteSpace=wrap;html=1;labelBackgroundColor=none;fillColor=#5ecc2e;fontColor=#FFFFFF;fontStyle=1;strokeColor=none;flipH=0;" parent="1" vertex="1">
          <mxGeometry x="760" y="600.12" width="93" height="45" as="geometry" />
        </mxCell>
        <mxCell id="tyBWiqdXj7CT22cmNioW-86" value="&lt;span style=&quot;font-size: 18px;&quot;&gt;视图交互层&lt;/span&gt;" style="text;html=1;strokeColor=none;fillColor=none;align=center;verticalAlign=middle;whiteSpace=wrap;rounded=0;labelBackgroundColor=none;fontColor=#FFFFFF;fontStyle=1" parent="1" vertex="1">
          <mxGeometry x="170" y="561.75" width="100" height="30" as="geometry" />
        </mxCell>
        <mxCell id="tyBWiqdXj7CT22cmNioW-89" value="" style="rounded=1;whiteSpace=wrap;html=1;fillColor=#89CC2e;dashed=1;labelBackgroundColor=none;strokeColor=none;opacity=60;fontColor=#FFFFFF;fontStyle=1" parent="1" vertex="1">
          <mxGeometry x="740" y="690" width="150" height="150" as="geometry" />
        </mxCell>
        <mxCell id="tyBWiqdXj7CT22cmNioW-90" value="路由管理 Router" style="text;html=1;strokeColor=none;fillColor=none;align=center;verticalAlign=middle;whiteSpace=wrap;rounded=0;labelBackgroundColor=none;fontColor=#FFFFFF;fontStyle=1" parent="1" vertex="1">
          <mxGeometry x="745" y="694" width="140" height="30" as="geometry" />
        </mxCell>
        <mxCell id="tyBWiqdXj7CT22cmNioW-91" value="chitu" style="rounded=0;whiteSpace=wrap;html=1;flipH=0;labelBackgroundColor=none;strokeColor=none;fillColor=#89CC2e;fontColor=#FFFFFF;fontStyle=1" parent="1" vertex="1">
          <mxGeometry x="754.5" y="724" width="120" height="30" as="geometry" />
        </mxCell>
        <mxCell id="tyBWiqdXj7CT22cmNioW-92" value="yunchang" style="rounded=0;whiteSpace=wrap;html=1;flipH=0;labelBackgroundColor=none;strokeColor=none;fillColor=#89CC2e;fontColor=#FFFFFF;fontStyle=1" parent="1" vertex="1">
          <mxGeometry x="755.5" y="759.63" width="120" height="30" as="geometry" />
        </mxCell>
        <mxCell id="tyBWiqdXj7CT22cmNioW-93" value="auth" style="rounded=0;whiteSpace=wrap;html=1;flipH=0;labelBackgroundColor=none;strokeColor=none;fillColor=#89CC2e;fontColor=#FFFFFF;fontStyle=1" parent="1" vertex="1">
          <mxGeometry x="755.5" y="799" width="120" height="30" as="geometry" />
        </mxCell>
        <mxCell id="tyBWiqdXj7CT22cmNioW-100" value="Yunchang Cashier Class" style="rounded=0;whiteSpace=wrap;html=1;labelBackgroundColor=none;fillColor=#2ecc71;strokeColor=none;fontColor=#FFFFFF;fontStyle=1" parent="1" vertex="1">
          <mxGeometry x="613" y="310" width="240" height="45" as="geometry" />
        </mxCell>
        <mxCell id="tyBWiqdXj7CT22cmNioW-101" value="Auth Cashier Class" style="rounded=0;whiteSpace=wrap;html=1;labelBackgroundColor=none;fillColor=#2ECC71;strokeColor=none;fontColor=#FFFFFF;fontStyle=1" parent="1" vertex="1">
          <mxGeometry x="900" y="310" width="240" height="45" as="geometry" />
        </mxCell>
        <mxCell id="tyBWiqdXj7CT22cmNioW-106" value="" style="endArrow=none;html=1;rounded=0;labelBackgroundColor=none;fontColor=#FFFFFF;strokeColor=#2EBECC;fontStyle=1;dashed=1;strokeWidth=2;opacity=30;" parent="1" edge="1">
          <mxGeometry width="50" height="50" relative="1" as="geometry">
            <mxPoint x="50" y="260" as="sourcePoint" />
            <mxPoint x="1160" y="260" as="targetPoint" />
          </mxGeometry>
        </mxCell>
        <mxCell id="tyBWiqdXj7CT22cmNioW-108" value="虚拟路由" style="rounded=0;whiteSpace=wrap;html=1;labelBackgroundColor=none;fontColor=#FFFFFF;fontStyle=1;fillColor=#2ecc3c;strokeColor=none;opacity=80;" parent="1" vertex="1">
          <mxGeometry x="1030" y="705.09" width="100" height="30" as="geometry" />
        </mxCell>
        <mxCell id="tyBWiqdXj7CT22cmNioW-109" value="核心依赖 dependencies" style="text;html=1;strokeColor=none;fillColor=none;align=center;verticalAlign=middle;whiteSpace=wrap;rounded=0;labelBackgroundColor=none;fontColor=#FFFFFF;fontStyle=1" parent="1" vertex="1">
          <mxGeometry x="297" y="860" width="863" height="30" as="geometry" />
        </mxCell>
        <mxCell id="tyBWiqdXj7CT22cmNioW-112" value="收银台接口 User API&amp;nbsp;" style="text;html=1;strokeColor=none;fillColor=none;align=center;verticalAlign=middle;whiteSpace=wrap;rounded=0;labelBackgroundColor=none;fontColor=#FFFFFF;fontStyle=1" parent="1" vertex="1">
          <mxGeometry x="659.5" y="280" width="130" height="30" as="geometry" />
        </mxCell>
        <mxCell id="tyBWiqdXj7CT22cmNioW-119" value="&lt;font style=&quot;font-size: 16px;&quot; color=&quot;#4d4d4d&quot;&gt;&lt;b&gt;业务层&lt;/b&gt;&lt;/font&gt;" style="rounded=0;whiteSpace=wrap;html=1;fillColor=#f5f5f5;strokeColor=none;fontColor=#333333;" parent="1" vertex="1">
          <mxGeometry x="50" y="100" width="180" height="140" as="geometry" />
        </mxCell>
        <mxCell id="tyBWiqdXj7CT22cmNioW-120" value="&lt;font style=&quot;font-size: 16px;&quot; color=&quot;#4d4d4d&quot;&gt;&lt;b&gt;实现层&lt;br&gt;&lt;br&gt;&lt;br&gt;&lt;br&gt;&lt;br&gt;&lt;br&gt;&lt;br&gt;&lt;br&gt;&lt;br&gt;&lt;br&gt;&lt;br&gt;&lt;br&gt;&lt;br&gt;&lt;br&gt;&lt;br&gt;&lt;br&gt;&lt;br&gt;&lt;br&gt;&lt;br&gt;&lt;br&gt;&lt;br&gt;&lt;br&gt;&lt;br&gt;&lt;br&gt;&lt;br&gt;&lt;br&gt;&lt;br&gt;&lt;br&gt;&lt;br&gt;&lt;br&gt;&lt;br&gt;&lt;br&gt;&lt;/b&gt;&lt;br&gt;&lt;/font&gt;" style="rounded=0;whiteSpace=wrap;html=1;fillColor=none;strokeColor=default;fontColor=#333333;dashed=1;dashPattern=12 12;opacity=40;" parent="1" vertex="1">
          <mxGeometry x="50" y="280" width="180" height="670" as="geometry" />
        </mxCell>
        <mxCell id="tyBWiqdXj7CT22cmNioW-121" value="&lt;font style=&quot;font-size: 16px;&quot; color=&quot;#4d4d4d&quot;&gt;服务层&lt;/font&gt;" style="rounded=0;whiteSpace=wrap;html=1;fillColor=#f5f5f5;strokeColor=none;fontColor=#333333;fontStyle=1" parent="1" vertex="1">
          <mxGeometry x="50" y="1010" width="180" height="70" as="geometry" />
        </mxCell>
        <mxCell id="tyBWiqdXj7CT22cmNioW-129" value="solar 聚合收银台" style="rounded=0;whiteSpace=wrap;html=1;labelBackgroundColor=none;fillColor=#218791;strokeColor=none;fontSize=14;fontStyle=1;fontColor=#FFFFFF;opacity=60;" parent="1" vertex="1">
          <mxGeometry x="310" y="160" width="622" height="50" as="geometry" />
        </mxCell>
        <mxCell id="tyBWiqdXj7CT22cmNioW-132" value="&lt;font color=&quot;#4d4d4d&quot;&gt;&lt;span style=&quot;font-size: 16px;&quot;&gt;接口服务&lt;/span&gt;&lt;/font&gt;" style="rounded=0;whiteSpace=wrap;html=1;fillColor=#E6E6E6;strokeColor=none;fontColor=#333333;opacity=80;" parent="1" vertex="1">
          <mxGeometry x="75" y="340" width="130" height="60" as="geometry" />
        </mxCell>
        <mxCell id="tyBWiqdXj7CT22cmNioW-133" value="&lt;font color=&quot;#4d4d4d&quot;&gt;&lt;span style=&quot;font-size: 16px;&quot;&gt;视图交互&lt;/span&gt;&lt;/font&gt;" style="rounded=0;whiteSpace=wrap;html=1;fillColor=#E6E6E6;strokeColor=none;fontColor=#333333;opacity=80;" parent="1" vertex="1">
          <mxGeometry x="75" y="447.62" width="130" height="230" as="geometry" />
        </mxCell>
        <mxCell id="tyBWiqdXj7CT22cmNioW-134" value="&lt;font style=&quot;font-size: 16px;&quot;&gt;数据逻辑&lt;/font&gt;" style="rounded=0;whiteSpace=wrap;html=1;fillColor=#E6E6E6;strokeColor=none;fontColor=#333333;opacity=80;" parent="1" vertex="1">
          <mxGeometry x="75" y="700" width="130" height="140" as="geometry" />
        </mxCell>
        <mxCell id="tyBWiqdXj7CT22cmNioW-135" value="&lt;font style=&quot;font-size: 16px;&quot;&gt;核心依赖&lt;/font&gt;" style="rounded=0;whiteSpace=wrap;html=1;fillColor=#E6E6E6;strokeColor=none;fontColor=#333333;opacity=80;" parent="1" vertex="1">
          <mxGeometry x="75" y="875" width="130" height="60" as="geometry" />
        </mxCell>
        <mxCell id="gwuaD-GeZfBtRJ5TRG_n-4" value="npm package" style="ellipse;whiteSpace=wrap;html=1;aspect=fixed;strokeColor=none;fillColor=#2ECC71;fontColor=#FFFFFF;fontSize=16;opacity=90;fontStyle=1" parent="1" vertex="1">
          <mxGeometry x="1370" y="260" width="80" height="80" as="geometry" />
        </mxCell>
        <mxCell id="gwuaD-GeZfBtRJ5TRG_n-5" value="URL" style="ellipse;whiteSpace=wrap;html=1;aspect=fixed;strokeColor=none;fillColor=#2ECC71;fontColor=#FFFFFF;fontSize=16;fontStyle=1;gradientColor=none;" parent="1" vertex="1">
          <mxGeometry x="1470" y="260" width="80" height="80" as="geometry" />
        </mxCell>
        <mxCell id="gwuaD-GeZfBtRJ5TRG_n-16" value="H5 polyfill" style="text;html=1;strokeColor=none;fillColor=none;align=center;verticalAlign=middle;whiteSpace=wrap;rounded=0;labelBackgroundColor=none;fontColor=#FFFFFF;fontStyle=1" parent="1" vertex="1">
          <mxGeometry x="1267.5" y="641.9699999999999" width="85" height="30" as="geometry" />
        </mxCell>
        <mxCell id="n-YF-1pe-g2PU01LNGiE-6" value="" style="rounded=1;whiteSpace=wrap;html=1;fillColor=none;dashed=1;labelBackgroundColor=none;strokeColor=#666666;opacity=50;strokeWidth=1;gradientColor=default;" vertex="1" parent="1">
          <mxGeometry x="910" y="579.5" width="240" height="73" as="geometry" />
        </mxCell>
        <mxCell id="n-YF-1pe-g2PU01LNGiE-8" value="通用能力" style="text;html=1;strokeColor=none;fillColor=none;align=center;verticalAlign=middle;whiteSpace=wrap;rounded=0;labelBackgroundColor=none;fontColor=#FFFFFF;fontStyle=1" vertex="1" parent="1">
          <mxGeometry x="975.4199999999998" y="447.62" width="109.16" height="30" as="geometry" />
        </mxCell>
        <mxCell id="n-YF-1pe-g2PU01LNGiE-9" value="端外能力" style="text;html=1;strokeColor=none;fillColor=none;align=center;verticalAlign=middle;whiteSpace=wrap;rounded=0;labelBackgroundColor=none;fontColor=#FFFFFF;fontStyle=1" vertex="1" parent="1">
          <mxGeometry x="975.4199999999998" y="579.5" width="109.16" height="30" as="geometry" />
        </mxCell>
        <mxCell id="n-YF-1pe-g2PU01LNGiE-10" value="端内能力" style="text;html=1;strokeColor=none;fillColor=none;align=center;verticalAlign=middle;whiteSpace=wrap;rounded=0;labelBackgroundColor=none;fontColor=#FFFFFF;fontStyle=1" vertex="1" parent="1">
          <mxGeometry x="975.4199999999998" y="676.78" width="109.16" height="30" as="geometry" />
        </mxCell>
        <mxCell id="n-YF-1pe-g2PU01LNGiE-11" value="URL处理" style="rounded=0;whiteSpace=wrap;html=1;labelBackgroundColor=none;fontColor=#FFFFFF;fontStyle=1;fillColor=#2ecc3c;strokeColor=none;opacity=80;" vertex="1" parent="1">
          <mxGeometry x="1030" y="480.18" width="100" height="30" as="geometry" />
        </mxCell>
        <mxCell id="n-YF-1pe-g2PU01LNGiE-12" value="Promise转换" style="rounded=0;whiteSpace=wrap;html=1;labelBackgroundColor=none;fontColor=#FFFFFF;fontStyle=1;fillColor=#2ecc3c;strokeColor=none;opacity=80;" vertex="1" parent="1">
          <mxGeometry x="1030" y="515.12" width="100" height="30" as="geometry" />
        </mxCell>
        <mxCell id="n-YF-1pe-g2PU01LNGiE-13" value="国密加密" style="rounded=0;whiteSpace=wrap;html=1;labelBackgroundColor=none;fontColor=#FFFFFF;fontStyle=1;fillColor=#2ecc3c;strokeColor=none;opacity=80;" vertex="1" parent="1">
          <mxGeometry x="920" y="515.12" width="100" height="30" as="geometry" />
        </mxCell>
        <mxCell id="n-YF-1pe-g2PU01LNGiE-17" style="edgeStyle=orthogonalEdgeStyle;rounded=0;orthogonalLoop=1;jettySize=auto;html=1;exitX=0.5;exitY=1;exitDx=0;exitDy=0;" edge="1" parent="1" source="n-YF-1pe-g2PU01LNGiE-9" target="n-YF-1pe-g2PU01LNGiE-9">
          <mxGeometry relative="1" as="geometry" />
        </mxCell>
        <mxCell id="n-YF-1pe-g2PU01LNGiE-18" value="国密键盘" style="rounded=0;whiteSpace=wrap;html=1;labelBackgroundColor=none;fontColor=#FFFFFF;fontStyle=1;fillColor=#2ecc3c;strokeColor=none;opacity=80;" vertex="1" parent="1">
          <mxGeometry x="920" y="609.5000000000001" width="100" height="30" as="geometry" />
        </mxCell>
        <mxCell id="n-YF-1pe-g2PU01LNGiE-19" value="Native Bridge" style="rounded=0;whiteSpace=wrap;html=1;labelBackgroundColor=none;fontColor=#FFFFFF;fontStyle=1;fillColor=#2ecc3c;strokeColor=none;opacity=80;" vertex="1" parent="1">
          <mxGeometry x="1030" y="609.5000000000001" width="100" height="30" as="geometry" />
        </mxCell>
        <mxCell id="n-YF-1pe-g2PU01LNGiE-20" value="安全sdk" style="rounded=0;whiteSpace=wrap;html=1;labelBackgroundColor=none;fontColor=#FFFFFF;fontStyle=1;fillColor=#2ecc3c;strokeColor=none;opacity=80;" vertex="1" parent="1">
          <mxGeometry x="1030" y="742.59" width="100" height="30" as="geometry" />
        </mxCell>
      </root>
    </mxGraphModel>
  </diagram>
</mxfile>
